<svg xmlns="http://www.w3.org/2000/svg" xmlns:xlink="http://www.w3.org/1999/xlink" preserveAspectRatio="xMidYMid" width="69.969" height="58.969" viewBox="0 0 69.969 58.969">
  <defs>
    <style>
      .cls-1 {
        fill: #fff;
        fill-rule: evenodd;
      }
    </style>
  </defs>
  <path d="M69.692,26.477 L66.169,29.967 C65.983,30.151 65.740,30.243 65.496,30.243 C65.252,30.243 65.009,30.151 64.823,29.967 L61.744,26.916 L60.244,28.402 L55.567,37.921 L55.567,52.154 C55.567,52.405 55.466,52.645 55.288,52.821 L49.351,58.705 C49.172,58.882 48.930,58.981 48.677,58.981 L22.387,58.981 C22.260,58.981 22.136,58.956 22.021,58.908 C21.904,58.860 21.800,58.790 21.713,58.703 L15.777,52.821 C15.598,52.645 15.498,52.405 15.498,52.154 L15.498,37.921 L10.820,28.402 L5.328,22.958 L0.949,22.958 C0.423,22.958 -0.003,22.536 -0.003,22.014 L-0.003,17.524 C-0.003,17.002 0.423,16.580 0.949,16.580 L4.770,16.580 L4.770,9.111 C4.770,8.918 4.829,8.731 4.939,8.573 L10.644,0.420 C10.822,0.165 11.114,0.013 11.427,0.013 L24.496,0.013 C24.809,0.013 25.101,0.165 25.279,0.420 L30.698,8.167 L40.366,8.167 L45.785,0.420 C45.964,0.165 46.256,0.013 46.569,0.013 L59.638,0.013 C59.950,0.013 60.243,0.165 60.421,0.420 L66.126,8.573 C66.235,8.731 66.295,8.918 66.295,9.111 L66.295,21.777 L69.692,25.143 C69.870,25.320 69.971,25.559 69.971,25.810 C69.971,26.061 69.870,26.300 69.692,26.477 ZM4.770,18.468 L1.902,18.468 L1.902,21.071 L4.770,21.071 L4.770,18.468 ZM64.390,9.406 L59.139,1.901 L47.067,1.901 L41.648,9.648 C41.469,9.903 41.177,10.054 40.865,10.054 L30.200,10.054 C29.887,10.054 29.595,9.903 29.417,9.648 L23.998,1.901 L11.925,1.901 L6.675,9.406 L6.675,17.524 L6.675,21.624 L12.280,27.179 C12.355,27.253 12.417,27.339 12.464,27.433 L17.046,36.760 L23.030,36.760 C23.557,36.760 23.983,37.182 23.983,37.704 C23.983,38.225 23.557,38.647 23.030,38.647 L17.403,38.647 L17.403,51.763 L21.435,55.759 L21.435,49.728 C21.435,49.207 21.861,48.784 22.387,48.784 C22.914,48.784 23.340,49.207 23.340,49.728 L23.340,57.094 L48.283,57.094 L53.662,51.763 L53.662,39.982 L51.104,42.517 L51.104,47.252 C51.104,47.774 50.678,48.196 50.151,48.196 C49.625,48.196 49.199,47.774 49.199,47.252 L49.199,42.126 C49.199,41.865 49.306,41.628 49.479,41.458 L53.827,37.149 L58.601,27.433 C58.647,27.339 58.710,27.253 58.784,27.179 L60.882,25.100 C60.927,25.014 60.922,24.906 60.992,24.837 L64.390,21.471 L64.390,9.406 ZM65.265,23.426 L63.090,25.581 L65.496,27.965 L67.672,25.810 L65.265,23.426 ZM58.299,21.488 C58.281,21.500 58.281,21.525 58.262,21.536 C58.235,21.552 58.204,21.547 58.176,21.559 C56.775,22.358 55.162,22.822 53.436,22.849 L45.936,24.681 C47.466,25.749 48.473,27.506 48.473,29.498 C48.473,32.750 45.803,35.396 42.521,35.396 C41.817,35.396 41.151,35.253 40.524,35.029 L43.586,42.183 C43.595,42.204 43.580,42.224 43.587,42.245 C44.348,43.579 44.818,45.097 44.818,46.735 C44.818,51.810 40.653,55.937 35.532,55.937 C30.457,55.937 26.333,51.879 26.260,46.868 C26.260,46.864 26.256,46.862 26.255,46.858 L24.759,35.554 C24.079,36.092 23.229,36.428 22.293,36.428 C20.102,36.428 18.320,34.662 18.320,32.491 C18.320,30.750 19.473,29.287 21.057,28.769 L11.149,20.338 C11.102,20.297 11.108,20.231 11.071,20.184 C10.379,19.545 9.754,18.838 9.264,18.030 C9.231,17.989 9.182,17.968 9.154,17.921 C9.132,17.883 9.154,17.839 9.138,17.799 C8.323,16.368 7.819,14.740 7.819,12.983 C7.819,11.202 8.306,9.540 9.146,8.104 C9.156,8.085 9.143,8.063 9.154,8.044 C9.180,8.000 9.220,7.973 9.251,7.935 C10.110,6.533 11.308,5.355 12.736,4.515 C12.766,4.492 12.768,4.449 12.802,4.429 C12.881,4.384 12.967,4.366 13.051,4.346 C14.467,3.580 16.064,3.106 17.786,3.106 C19.563,3.106 21.223,3.578 22.662,4.393 C22.697,4.408 22.735,4.410 22.770,4.429 C22.789,4.440 22.789,4.465 22.807,4.477 C24.229,5.315 25.427,6.492 26.286,7.896 C26.286,7.897 26.287,7.898 26.288,7.899 C26.324,7.938 26.369,7.966 26.398,8.013 L31.985,16.787 C32.635,15.489 33.973,14.587 35.532,14.587 C37.091,14.587 38.429,15.490 39.079,16.787 L44.666,8.013 C44.694,7.970 44.736,7.944 44.769,7.907 C44.773,7.903 44.776,7.899 44.779,7.896 C45.638,6.492 46.836,5.315 48.258,4.477 C48.276,4.465 48.276,4.440 48.295,4.429 C48.329,4.409 48.368,4.408 48.403,4.393 C49.842,3.578 51.502,3.106 53.278,3.106 C55.001,3.106 56.598,3.580 58.012,4.346 C58.097,4.366 58.183,4.384 58.262,4.429 C58.297,4.449 58.298,4.493 58.329,4.516 C59.755,5.355 60.952,6.533 61.811,7.933 C61.843,7.972 61.884,8.000 61.910,8.044 C61.922,8.064 61.909,8.086 61.919,8.107 C62.758,9.542 63.245,11.203 63.245,12.983 C63.245,14.739 62.741,16.366 61.927,17.797 C61.910,17.837 61.933,17.882 61.910,17.921 C61.882,17.969 61.833,17.990 61.798,18.031 C60.938,19.452 59.733,20.643 58.299,21.488 ZM42.521,33.508 C44.753,33.508 46.569,31.709 46.569,29.498 C46.569,27.286 44.753,25.486 42.521,25.486 C40.289,25.486 38.473,27.286 38.473,29.498 C38.473,31.709 40.289,33.508 42.521,33.508 ZM35.532,54.049 C39.602,54.049 42.913,50.768 42.913,46.735 C42.913,42.703 39.602,39.422 35.532,39.422 C31.463,39.422 28.152,42.703 28.152,46.735 C28.152,50.768 31.463,54.049 35.532,54.049 ZM20.225,32.491 C20.225,33.622 21.153,34.540 22.293,34.540 C23.434,34.540 24.361,33.622 24.361,32.491 C24.361,31.949 24.139,31.462 23.790,31.095 L23.635,30.963 C23.272,30.649 22.812,30.442 22.293,30.442 C21.153,30.442 20.225,31.362 20.225,32.491 ZM22.571,6.659 L21.841,7.913 C21.664,8.215 21.344,8.384 21.015,8.384 C20.853,8.384 20.689,8.344 20.539,8.258 C20.083,7.997 19.927,7.420 20.191,6.969 L20.924,5.711 C20.234,5.416 19.514,5.181 18.738,5.089 L18.738,6.583 C18.738,7.105 18.312,7.527 17.786,7.527 C17.260,7.527 16.834,7.105 16.834,6.583 L16.834,5.089 C16.060,5.181 15.334,5.408 14.642,5.700 L15.382,6.969 C15.645,7.420 15.488,7.997 15.033,8.258 C14.883,8.344 14.719,8.384 14.558,8.384 C14.228,8.384 13.908,8.216 13.732,7.913 L12.980,6.622 C12.366,7.073 11.849,7.630 11.386,8.231 L12.669,8.965 C13.125,9.226 13.281,9.803 13.018,10.254 C12.841,10.557 12.521,10.726 12.192,10.726 C12.030,10.726 11.867,10.686 11.717,10.600 L10.424,9.860 C10.123,10.542 9.941,11.278 9.835,12.039 L11.328,12.039 C11.854,12.039 12.280,12.461 12.280,12.983 C12.280,13.504 11.854,13.926 11.328,13.926 L9.820,13.926 C9.912,14.693 10.142,15.412 10.436,16.098 L11.717,15.365 C12.169,15.103 12.755,15.257 13.018,15.711 C13.281,16.162 13.125,16.740 12.669,17.000 L11.367,17.745 C11.822,18.354 12.385,18.866 12.991,19.325 L13.732,18.053 C13.995,17.601 14.577,17.447 15.033,17.707 C15.488,17.968 15.645,18.545 15.382,18.997 L14.635,20.278 C15.323,20.576 16.066,20.756 16.834,20.862 L16.834,19.382 C16.834,18.860 17.260,18.438 17.786,18.438 C18.312,18.438 18.738,18.860 18.738,19.382 L18.738,20.877 C19.512,20.785 20.238,20.557 20.930,20.266 L20.191,18.997 C19.927,18.545 20.083,17.968 20.539,17.707 C20.992,17.447 21.575,17.600 21.841,18.053 L22.592,19.343 C23.206,18.892 23.723,18.335 24.186,17.734 L22.903,17.000 C22.447,16.740 22.291,16.162 22.554,15.711 C22.817,15.260 23.400,15.103 23.855,15.365 L25.148,16.105 C25.449,15.423 25.631,14.688 25.737,13.926 L24.244,13.926 C23.717,13.926 23.292,13.504 23.292,12.983 C23.292,12.461 23.717,12.039 24.244,12.039 L25.759,12.039 C25.666,11.270 25.441,10.547 25.145,9.862 L23.855,10.600 C23.705,10.686 23.542,10.726 23.380,10.726 C23.051,10.726 22.731,10.558 22.554,10.254 C22.291,9.803 22.447,9.226 22.903,8.965 L24.200,8.223 C23.743,7.620 23.178,7.113 22.571,6.659 ZM35.532,16.475 C34.392,16.475 33.464,17.395 33.464,18.525 C33.464,19.655 34.392,20.575 35.532,20.575 C36.673,20.575 37.600,19.655 37.600,18.525 C37.600,17.395 36.673,16.475 35.532,16.475 ZM44.714,17.987 C44.695,17.961 44.663,17.950 44.647,17.921 C44.636,17.902 44.648,17.881 44.639,17.862 C43.899,16.597 43.455,15.152 43.354,13.611 L39.358,19.885 C39.317,19.949 39.252,19.982 39.200,20.032 C38.601,21.457 37.184,22.462 35.532,22.462 C33.880,22.462 32.462,21.457 31.864,20.032 C31.812,19.982 31.746,19.949 31.706,19.885 L27.711,13.611 C27.610,15.152 27.166,16.598 26.426,17.862 C26.416,17.881 26.429,17.902 26.418,17.921 C26.401,17.949 26.370,17.961 26.351,17.987 C25.490,19.408 24.279,20.601 22.837,21.450 C22.806,21.473 22.804,21.516 22.770,21.536 C22.712,21.570 22.647,21.565 22.585,21.585 C21.155,22.372 19.535,22.860 17.786,22.860 C17.510,22.860 17.243,22.828 16.974,22.806 L24.688,29.370 C25.601,30.061 26.199,31.128 26.248,32.340 C26.249,32.350 26.256,32.358 26.258,32.369 L27.548,42.117 C29.161,39.390 32.118,37.534 35.532,37.534 C37.178,37.534 38.702,37.996 40.044,38.743 L37.185,32.065 C37.185,32.064 37.186,32.063 37.185,32.061 C36.802,31.283 36.568,30.420 36.568,29.498 C36.568,26.311 39.137,23.722 42.328,23.618 L49.213,21.937 C48.966,21.824 48.716,21.716 48.480,21.585 C48.418,21.565 48.353,21.570 48.295,21.536 C48.260,21.516 48.259,21.473 48.228,21.450 C46.785,20.601 45.575,19.408 44.714,17.987 ZM61.244,13.926 L59.737,13.926 C59.210,13.926 58.784,13.504 58.784,12.983 C58.784,12.461 59.210,12.039 59.737,12.039 L61.229,12.039 C61.122,11.278 60.940,10.542 60.640,9.861 L59.348,10.600 C59.198,10.686 59.034,10.726 58.872,10.726 C58.543,10.726 58.223,10.558 58.046,10.254 C57.783,9.803 57.940,9.226 58.395,8.965 L59.678,8.231 C59.215,7.631 58.698,7.073 58.084,6.622 L57.332,7.913 C57.155,8.216 56.835,8.384 56.506,8.384 C56.344,8.384 56.181,8.344 56.031,8.258 C55.575,7.997 55.419,7.419 55.682,6.969 L56.422,5.700 C55.730,5.408 55.005,5.181 54.231,5.089 L54.231,6.583 C54.231,7.105 53.805,7.527 53.278,7.527 C52.752,7.527 52.326,7.105 52.326,6.583 L52.326,5.089 C51.551,5.181 50.830,5.416 50.141,5.711 L50.874,6.969 C51.137,7.420 50.981,7.997 50.525,8.258 C50.376,8.344 50.212,8.384 50.050,8.384 C49.721,8.384 49.401,8.216 49.224,7.913 L48.494,6.659 C47.886,7.113 47.322,7.620 46.865,8.223 L48.162,8.965 C48.618,9.226 48.774,9.803 48.511,10.254 C48.334,10.557 48.014,10.726 47.685,10.726 C47.523,10.726 47.359,10.686 47.209,10.600 L45.920,9.862 C45.623,10.547 45.399,11.270 45.306,12.039 L46.820,12.039 C47.346,12.039 47.772,12.461 47.772,12.983 C47.772,13.504 47.346,13.926 46.820,13.926 L45.327,13.926 C45.434,14.688 45.616,15.423 45.916,16.105 L47.209,15.365 C47.662,15.103 48.245,15.257 48.511,15.711 C48.774,16.162 48.618,16.740 48.162,17.000 L46.879,17.734 C47.342,18.335 47.858,18.892 48.472,19.343 L49.224,18.053 C49.486,17.601 50.070,17.447 50.525,17.707 C50.981,17.968 51.137,18.545 50.874,18.997 L50.135,20.266 C50.827,20.557 51.552,20.785 52.326,20.877 L52.326,19.382 C52.326,18.860 52.752,18.438 53.278,18.438 C53.805,18.438 54.231,18.860 54.231,19.382 L54.231,20.862 C54.999,20.756 55.741,20.576 56.429,20.278 L55.682,18.997 C55.419,18.546 55.575,17.968 56.031,17.707 C56.483,17.447 57.068,17.600 57.332,18.053 L58.073,19.324 C58.679,18.865 59.241,18.354 59.697,17.745 L58.395,17.000 C57.940,16.740 57.783,16.162 58.046,15.711 C58.310,15.260 58.893,15.103 59.348,15.365 L60.627,16.097 C60.921,15.412 61.151,14.693 61.244,13.926 ZM53.278,16.648 C51.239,16.648 49.579,15.004 49.579,12.983 C49.579,10.961 51.239,9.317 53.278,9.317 C55.317,9.317 56.977,10.961 56.977,12.983 C56.977,15.004 55.317,16.648 53.278,16.648 ZM53.278,11.205 C52.289,11.205 51.484,12.002 51.484,12.983 C51.484,13.964 52.289,14.761 53.278,14.761 C54.267,14.761 55.072,13.964 55.072,12.983 C55.072,12.002 54.267,11.205 53.278,11.205 ZM17.786,16.648 C15.746,16.648 14.087,15.004 14.087,12.983 C14.087,10.961 15.746,9.317 17.786,9.317 C19.826,9.317 21.485,10.961 21.485,12.983 C21.485,15.004 19.826,16.648 17.786,16.648 ZM17.786,11.205 C16.796,11.205 15.992,12.002 15.992,12.983 C15.992,13.964 16.796,14.761 17.786,14.761 C18.776,14.761 19.580,13.964 19.580,12.983 C19.580,12.002 18.776,11.205 17.786,11.205 ZM35.532,42.798 C37.723,42.798 39.505,44.564 39.505,46.735 C39.505,48.906 37.723,50.672 35.532,50.672 C33.341,50.672 31.559,48.906 31.559,46.735 C31.559,44.564 33.341,42.798 35.532,42.798 ZM35.532,48.784 C36.673,48.784 37.600,47.866 37.600,46.735 C37.600,45.606 36.673,44.686 35.532,44.686 C34.392,44.686 33.464,45.606 33.464,46.735 C33.464,47.866 34.392,48.784 35.532,48.784 Z" class="cls-1"/>
</svg>
